<svg id="Layer_1" data-name="Layer 1" xmlns="http://www.w3.org/2000/svg" viewBox="0 0 38.08 40.64"><defs><linearGradient id="linear-gradient" x1="-39.67" y1="-16.18" x2="208.33" y2="-16.18" gradientTransform="matrix(.15 0 0 -.15 5.95 14.45)" gradientUnits="userSpaceOnUse"><stop offset=".91"/><stop offset="1" stop-color="#555"/></linearGradient><linearGradient id="linear-gradient-2" x1="56.28" y1="-117.66" x2="113.28" y2="-117.66" gradientTransform="matrix(.15 0 0 -.15 5.95 14.45)" gradientUnits="userSpaceOnUse"><stop offset="0" stop-color="#656565"/><stop offset="1" stop-color="#656565"/></linearGradient><linearGradient id="linear-gradient-3" x1="166.28" y1="-68.16" x2="201.28" y2="-68.16" gradientTransform="matrix(.15 0 0 -.15 5.95 14.45)" gradientUnits="userSpaceOnUse"><stop offset="0" stop-color="#9a9a9a"/><stop offset="1" stop-color="#d2d2d2"/></linearGradient><linearGradient id="linear-gradient-4" x1="-34.67" y1="-65.16" x2="-.67" y2="-65.16" gradientTransform="matrix(.15 0 0 -.15 5.95 14.45)" gradientUnits="userSpaceOnUse"><stop offset="0" stop-color="#626262"/><stop offset="1" stop-color="#898989"/></linearGradient><linearGradient id="linear-gradient-5" x1="-23.17" y1="48.5" x2="189.83" y2="-61.93" gradientTransform="matrix(.15 0 0 -.15 5.95 14.45)" gradientUnits="userSpaceOnUse"><stop offset="0" stop-color="#4b4c4b"/><stop offset=".73" stop-color="#131313"/></linearGradient><linearGradient id="linear-gradient-6" x1="-2.14" y1="-10.83" x2="168.71" y2="4.02" gradientTransform="matrix(.15 0 0 -.15 5.95 14.45)" gradientUnits="userSpaceOnUse"><stop offset="0" stop-color="#565656"/><stop offset=".62" stop-color="#1e1e1e"/></linearGradient><mask id="mask" x=".59" y="2.9" width="37.2" height="37.74" maskUnits="userSpaceOnUse"><g transform="translate(.59 2.9)"><g id="Mask_Mask_1" data-name="Mask Mask 1"><path class="cls-1" d="M31.75 4.94A18.91 18.91 0 0 0 18.6 0 18.93 18.93 0 0 0 5.44 4.94 15.56 15.56 0 0 0 0 16.88a15.53 15.53 0 0 0 5.44 11.93 18.89 18.89 0 0 0 13.16 4.95 18.87 18.87 0 0 0 13.15-4.95 15.54 15.54 0 0 0 5.45-11.93 15.57 15.57 0 0 0-5.45-11.94Z" id="Mask_Mask_Symbol_45_0_Layer0_0_FILL" data-name="Mask Mask Symbol 45 0 Layer0 0 FILL"/></g></g></mask><mask id="mask-2" x="0" y="0" width="38.08" height="35.72" maskUnits="userSpaceOnUse"><g transform="translate(.59 2.9)"><g id="Mask_Mask_2" data-name="Mask Mask 2"><path class="cls-1" d="M31.49 4.53A19.63 19.63 0 0 0 18.45 0a19.63 19.63 0 0 0-13 4.53 13.76 13.76 0 0 0 0 21.86 19.63 19.63 0 0 0 13.05 4.53 19.63 19.63 0 0 0 13-4.53 13.75 13.75 0 0 0 0-21.86Z" id="Mask_Mask_Symbol_45_0_Layer0_0_FILL-2" data-name="Mask Mask Symbol 45 0 Layer0 0 FILL"/></g></g></mask><radialGradient id="radial-gradient" cx="-39.67" cy="110.52" r="124.7" gradientTransform="matrix(.15 0 0 -.13 24.41 29.35)" gradientUnits="userSpaceOnUse"><stop offset=".98" stop-color="#333" stop-opacity="0"/><stop offset="1" stop-color="#333"/></radialGradient><style>.cls-1{fill:#fff}</style></defs><g id="regular_mc" data-name="regular mc"><g style="mask:url(#mask)"><path d="M31.75 28.81a15.54 15.54 0 0 0 5.45-11.93 15.54 15.54 0 0 0-5.45-11.94A18.89 18.89 0 0 0 18.6 0 18.93 18.93 0 0 0 5.44 4.94 15.53 15.53 0 0 0 0 16.88a15.53 15.53 0 0 0 5.44 11.93 18.89 18.89 0 0 0 13.16 4.95 18.85 18.85 0 0 0 13.15-4.95Z" transform="translate(.59 2.9)" style="fill:url(#linear-gradient)" id="Symbol_46_0_Layer3_0_FILL" data-name="Symbol 46 0 Layer3 0 FILL"/><path d="M22.94 26.48h-8.55v11.26h8.55Z" transform="translate(.59 2.9)" style="fill:url(#linear-gradient-2)" id="Symbol_46_0_Layer2_0_FILL" data-name="Symbol 46 0 Layer2 0 FILL"/><path d="M36.14 19.05h-5.25v11.26h5.25Z" transform="translate(.59 2.9)" style="fill:url(#linear-gradient-3)" id="Symbol_46_0_Layer1_0_FILL" data-name="Symbol 46 0 Layer1 0 FILL"/><path d="M6 18.6H.75v11.26H6Z" transform="translate(.59 2.9)" style="fill:url(#linear-gradient-4)" id="Symbol_46_0_Layer0_0_FILL" data-name="Symbol 46 0 Layer0 0 FILL"/></g><path d="M31.49 26.39a13.75 13.75 0 0 0 0-21.86A19.63 19.63 0 0 0 18.45 0a19.63 19.63 0 0 0-13 4.53 13.76 13.76 0 0 0 0 21.86 19.63 19.63 0 0 0 13.05 4.53 19.63 19.63 0 0 0 12.99-4.53Z" transform="translate(.59 2.9)" style="fill:url(#linear-gradient-5)" id="Symbol_47_0_Layer19_0_FILL" data-name="Symbol 47 0 Layer19 0 FILL"/><path d="M28.18 23.14a10.27 10.27 0 0 0 0-16.36 14.67 14.67 0 0 0-9.74-3.37 14.76 14.76 0 0 0-9.76 3.37 10.3 10.3 0 0 0 0 16.36 14.76 14.76 0 0 0 9.76 3.38 14.67 14.67 0 0 0 9.74-3.38Z" transform="translate(.59 2.9)" id="Symbol_47_0_Layer18_0_FILL" data-name="Symbol 47 0 Layer18 0 FILL"/><path d="M27.66 22.66a9.66 9.66 0 0 0 0-15.4 14 14 0 0 0-9.22-3.18 14 14 0 0 0-9.23 3.18 9.67 9.67 0 0 0 0 15.4 14 14 0 0 0 9.23 3.18 14 14 0 0 0 9.22-3.18Z" transform="translate(.59 2.9)" style="fill:url(#linear-gradient-6)" id="Symbol_47_0_Layer17_0_FILL" data-name="Symbol 47 0 Layer17 0 FILL"/><path class="cls-1" d="M27.24 22.29a9.18 9.18 0 0 0 0-14.65 13.31 13.31 0 0 0-8.8-3 13.34 13.34 0 0 0-8.81 3 9.19 9.19 0 0 0 0 14.65 13.34 13.34 0 0 0 8.81 3 13.31 13.31 0 0 0 8.8-3Z" transform="translate(.59 2.9)" id="Symbol_47_0_Layer16_0_FILL" data-name="Symbol 47 0 Layer16 0 FILL"/><path class="cls-1" d="m9.72 6.27.17.27a11.28 11.28 0 0 1 2.3-1.35l-.12-.27a11.38 11.38 0 0 0-2.35 1.35Z" transform="translate(.59 2.9)" id="Symbol_47_0_Layer15_0_FILL" data-name="Symbol 47 0 Layer15 0 FILL"/><path class="cls-1" d="m13.36 4.37.1.41a12.32 12.32 0 0 1 3.13-.68v-.41a12.78 12.78 0 0 0-3.23.68Z" transform="translate(.59 2.9)" id="Symbol_47_0_Layer14_0_FILL" data-name="Symbol 47 0 Layer14 0 FILL"/><path class="cls-1" d="m21.43 4.23.06-.4A23 23 0 0 0 18 3.56V4a22.09 22.09 0 0 1 3.43.23Z" transform="translate(.59 2.9)" id="Symbol_47_0_Layer13_0_FILL" data-name="Symbol 47 0 Layer13 0 FILL"/><path class="cls-1" d="m26.07 6 .16-.41a11.63 11.63 0 0 0-3.37-1.36l-.09.28A14.45 14.45 0 0 1 26.07 6Z" transform="translate(.59 2.9)" id="Symbol_47_0_Layer12_0_FILL" data-name="Symbol 47 0 Layer12 0 FILL"/><path class="cls-1" d="m27.52 6.54-.18.27A9.67 9.67 0 0 1 30 9.53l.24-.27a9.61 9.61 0 0 0-2.72-2.72Z" transform="translate(.59 2.9)" id="Symbol_47_0_Layer11_0_FILL" data-name="Symbol 47 0 Layer11 0 FILL"/><path class="cls-1" d="M31 10.75a.38.38 0 0 1-.26.14 8.6 8.6 0 0 1 .89 3 .4.4 0 0 0 .28-.14 8.69 8.69 0 0 0-.91-3Z" transform="translate(.59 2.9)" id="Symbol_47_0_Layer10_0_FILL" data-name="Symbol 47 0 Layer10 0 FILL"/><path class="cls-1" d="M32 15.37h-.28a9.49 9.49 0 0 1-.64 3 .36.36 0 0 0 .26.13 9.77 9.77 0 0 0 .66-3.13Z" transform="translate(.59 2.9)" id="Symbol_47_0_Layer9_0_FILL" data-name="Symbol 47 0 Layer9 0 FILL"/><path class="cls-1" d="M30.64 20a.34.34 0 0 1-.25-.13A15.88 15.88 0 0 1 28.63 22l.21.27a12.59 12.59 0 0 0 1.8-2.27Z" transform="translate(.59 2.9)" id="Symbol_47_0_Layer8_0_FILL" data-name="Symbol 47 0 Layer8 0 FILL"/><path class="cls-1" d="m27.52 23.38-.18-.27a10.7 10.7 0 0 1-2.25 1.36 2.11 2.11 0 0 0 .14.41 18.85 18.85 0 0 0 2.29-1.5Z" transform="translate(.59 2.9)" id="Symbol_47_0_Layer7_0_FILL" data-name="Symbol 47 0 Layer7 0 FILL"/><path class="cls-1" d="m23.74 25.42-.1-.27a16.4 16.4 0 0 1-3.59.68v.4a12.56 12.56 0 0 0 3.69-.81Z" transform="translate(.59 2.9)" id="Symbol_47_0_Layer6_0_FILL" data-name="Symbol 47 0 Layer6 0 FILL"/><path class="cls-1" d="m15.22 25.69-.07.41a20 20 0 0 0 3.29.27V26a19.17 19.17 0 0 1-3.22-.31Z" transform="translate(.59 2.9)" id="Symbol_47_0_Layer5_0_FILL" data-name="Symbol 47 0 Layer5 0 FILL"/><path class="cls-1" d="m10.26 23.65-.17.27a17.82 17.82 0 0 0 3.27 1.63l.1-.4a12.52 12.52 0 0 1-3.2-1.5Z" transform="translate(.59 2.9)" id="Symbol_47_0_Layer4_0_FILL" data-name="Symbol 47 0 Layer4 0 FILL"/><path class="cls-1" d="m6.38 19.58-.25.27A11.15 11.15 0 0 0 8.84 23l.16-.3a11.22 11.22 0 0 1-2.62-3.12Z" transform="translate(.59 2.9)" id="Symbol_47_0_Layer3_0_FILL" data-name="Symbol 47 0 Layer3 0 FILL"/><path class="cls-1" d="M5.53 18.49a.38.38 0 0 0 .27-.13 9.51 9.51 0 0 1-.65-3h-.28a9.77 9.77 0 0 0 .66 3.13Z" transform="translate(.59 2.9)" id="Symbol_47_0_Layer2_0_FILL" data-name="Symbol 47 0 Layer2 0 FILL"/><path class="cls-1" d="M5.22 13.88A9.74 9.74 0 0 1 6 11a.36.36 0 0 1-.25-.13 9.35 9.35 0 0 0-.83 2.85.44.44 0 0 0 .3.16Z" transform="translate(.59 2.9)" id="Symbol_47_0_Layer1_0_FILL" data-name="Symbol 47 0 Layer1 0 FILL"/><path class="cls-1" d="m6.56 9.4.25.27a9.59 9.59 0 0 1 1.9-2.17l-.2-.27A9.82 9.82 0 0 0 6.56 9.4Z" transform="translate(.59 2.9)" id="Symbol_47_0_Layer0_0_FILL" data-name="Symbol 47 0 Layer0 0 FILL"/><g style="mask:url(#mask-2)"><path class="cls-1" d="M16 26.82a1.46 1.46 0 0 0-1.65 1.65v2.7A1.46 1.46 0 0 0 16 32.82h5.25a1.46 1.46 0 0 0 1.65-1.65v-2.7a1.46 1.46 0 0 0-1.65-1.65Z" transform="translate(.59 2.9)" id="Symbol_48_0_Layer5_0_FILL" data-name="Symbol 48 0 Layer5 0 FILL"/><path class="cls-1" d="M16-2.9a1.46 1.46 0 0 0-1.65 1.65v2.71A1.46 1.46 0 0 0 16 3.11h5.25a1.46 1.46 0 0 0 1.65-1.65v-2.71a1.46 1.46 0 0 0-1.61-1.65Z" transform="translate(.59 2.9)" id="Symbol_48_0_Layer4_0_FILL" data-name="Symbol 48 0 Layer4 0 FILL"/><path class="cls-1" d="M36.7 10a1.45 1.45 0 0 0 .39-2.3l-3-4.29a1.44 1.44 0 0 0-2.29-.39l-2.24 1.59a1.45 1.45 0 0 0-.39 2.3l3 4.29a1.45 1.45 0 0 0 2.3.39Z" transform="translate(.59 2.9)" id="Symbol_48_0_Layer3_0_FILL" data-name="Symbol 48 0 Layer3 0 FILL"/><path class="cls-1" d="M2.58 18.75.37 20.31A1.47 1.47 0 0 0 0 22.62l3 4.28a1.46 1.46 0 0 0 2.3.4l2.2-1.56a1.45 1.45 0 0 0 .39-2.3l-3-4.29a1.45 1.45 0 0 0-2.31-.4Z" transform="translate(.59 2.9)" id="Symbol_48_0_Layer2_0_FILL" data-name="Symbol 48 0 Layer2 0 FILL"/><path class="cls-1" d="m34.18 18.75 2.2 1.56a1.47 1.47 0 0 1 .4 2.31l-3 4.28a1.46 1.46 0 0 1-2.3.4l-2.21-1.56a1.47 1.47 0 0 1-.39-2.3l3-4.29a1.46 1.46 0 0 1 2.3-.4Z" transform="translate(.59 2.9)" id="Symbol_48_0_Layer1_0_FILL" data-name="Symbol 48 0 Layer1 0 FILL"/><path class="cls-1" d="M7.33 4.77a1.46 1.46 0 0 1 .4 2.3l-3 4.28a1.46 1.46 0 0 1-2.3.4L.19 10.19a1.46 1.46 0 0 1-.38-2.3l3-4.29a1.46 1.46 0 0 1 2.3-.4Z" transform="translate(.59 2.9)" id="Symbol_48_0_Layer0_0_FILL" data-name="Symbol 48 0 Layer0 0 FILL"/></g><path d="M36.91 15.46a13.79 13.79 0 0 0-5.4-10.93A19.67 19.67 0 0 0 18.46 0a19.63 19.63 0 0 0-13 4.53 13.76 13.76 0 0 0 0 21.86 19.63 19.63 0 0 0 13.05 4.53 19.67 19.67 0 0 0 13.05-4.53 13.8 13.8 0 0 0 5.35-10.93Z" transform="translate(.59 2.9)" style="fill:url(#radial-gradient)" id="Symbol_49_0_Layer0_0_FILL" data-name="Symbol 49 0 Layer0 0 FILL"/></g></svg>