<svg xmlns="http://www.w3.org/2000/svg" xmlns:xlink="http://www.w3.org/1999/xlink" width="76.852" height="77.152" id="svg3760" version="1.1"><defs id="defs3762"><linearGradient id="linearGradient3795"><stop id="stop3797" offset="0" style="stop-color:#1c2224;stop-opacity:1"/><stop style="stop-color:#2a2723;stop-opacity:1" offset=".631" id="stop3799"/><stop id="stop3801" offset="1" style="stop-color:#e6282e;stop-opacity:1"/></linearGradient><linearGradient id="linearGradient3432"><stop style="stop-color:#7260a4;stop-opacity:1" offset="0" id="stop3434"/><stop id="stop3793" offset=".5" style="stop-color:#8d4b99;stop-opacity:1"/><stop style="stop-color:#a8378f;stop-opacity:1" offset="1" id="stop3436"/></linearGradient><linearGradient id="linearGradient3418"><stop id="stop3420" offset="0" style="stop-color:#d23388;stop-opacity:1"/><stop style="stop-color:#ef2e43;stop-opacity:1" offset=".293" id="stop3422"/><stop id="stop3430" offset=".69" style="stop-color:#e5282c;stop-opacity:1"/><stop id="stop3424" offset="1" style="stop-color:#602b33;stop-opacity:1"/></linearGradient><linearGradient id="linearGradient3410"><stop style="stop-color:grey;stop-opacity:1" offset="0" id="stop3412"/><stop id="stop3426" offset=".5" style="stop-color:grey;stop-opacity:.49803922"/><stop style="stop-color:grey;stop-opacity:.24705882" offset=".75" id="stop3428"/><stop style="stop-color:grey;stop-opacity:0" offset="1" id="stop3414"/></linearGradient><linearGradient id="linearGradient3177"><stop id="stop3179" offset="0" style="stop-color:maroon;stop-opacity:1"/><stop style="stop-color:#d69c45;stop-opacity:1" offset=".213" id="stop3181"/><stop id="stop3183" offset="1" style="stop-color:#e5ff6a;stop-opacity:1"/></linearGradient><linearGradient id="linearGradient4306"><stop id="stop4308" offset="0" style="stop-color:#9f863f;stop-opacity:1"/><stop style="stop-color:#332815;stop-opacity:1" offset="1" id="stop4310"/><stop id="stop4312" offset="1" style="stop-color:#e9e560;stop-opacity:1"/></linearGradient><linearGradient id="linearGradient4296"><stop id="stop4298" offset="0" style="stop-color:#f0bf7a;stop-opacity:.91071427"/><stop style="stop-color:#f0bf7a;stop-opacity:.45490196" offset=".642" id="stop4300"/><stop id="stop4302" offset="1" style="stop-color:#f0bf7a;stop-opacity:0"/></linearGradient><linearGradient id="linearGradient4230"><stop style="stop-color:#f0bf7a;stop-opacity:.91071427" offset="0" id="stop4232"/><stop id="stop4292" offset=".5" style="stop-color:#f0bf7a;stop-opacity:.45490196"/><stop style="stop-color:#f0bf7a;stop-opacity:0" offset="1" id="stop4234"/></linearGradient><linearGradient id="linearGradient3111"><stop style="stop-color:#f3c87d;stop-opacity:.7589286" offset="0" id="stop3113"/><stop id="stop3119" offset=".914" style="stop-color:#d69c45;stop-opacity:1"/><stop style="stop-color:#e5ff6a;stop-opacity:1" offset="1" id="stop3115"/></linearGradient><linearGradient id="linearGradient3101"><stop style="stop-color:#a5864d;stop-opacity:1" offset="0" id="stop3103"/><stop id="stop4238" offset=".786" style="stop-color:#332815;stop-opacity:1"/><stop style="stop-color:#1a1911;stop-opacity:1" offset="1" id="stop3105"/></linearGradient><linearGradient y2="22.402" x2="106.25" y1="22.902" x1="143.5" gradientTransform="translate(182.536 525.197) scale(1.21134)" gradientUnits="userSpaceOnUse" id="linearGradient6058" xlink:href="#linearGradient5507-3"/><linearGradient id="linearGradient5507-3"><stop style="stop-color:red;stop-opacity:1" offset="0" id="stop5509-1"/><stop style="stop-color:#f60;stop-opacity:1" offset="1" id="stop5511-9"/></linearGradient><linearGradient y2="22.402" x2="106.25" y1="22.902" x1="143.5" gradientTransform="translate(182.536 525.197) scale(1.21134)" gradientUnits="userSpaceOnUse" id="linearGradient7449" xlink:href="#linearGradient5507-3"/><linearGradient id="linearGradient7451"><stop style="stop-color:red;stop-opacity:1" offset="0" id="stop7453"/><stop style="stop-color:#f60;stop-opacity:1" offset="1" id="stop7455"/></linearGradient><linearGradient y2="22.402" x2="106.25" y1="22.902" x1="143.5" gradientTransform="matrix(.37607 0 0 .37607 284.342 546.05)" gradientUnits="userSpaceOnUse" id="linearGradient7459" xlink:href="#linearGradient5507-3"/><linearGradient id="linearGradient3111-5"><stop style="stop-color:red;stop-opacity:1" offset="0" id="stop3113-4"/><stop id="stop3119-9" offset=".914" style="stop-color:#d69c45;stop-opacity:1"/><stop style="stop-color:#e5ff6a;stop-opacity:1" offset="1" id="stop3115-5"/></linearGradient><linearGradient id="linearGradient3101-4"><stop style="stop-color:#a5864d;stop-opacity:1" offset="0" id="stop3103-8"/><stop id="stop4238-2" offset=".786" style="stop-color:#332815;stop-opacity:1"/><stop style="stop-color:#1a1911;stop-opacity:1" offset="1" id="stop3105-1"/></linearGradient><linearGradient id="linearGradient4296-8"><stop id="stop4298-3" offset="0" style="stop-color:#f0bf7a;stop-opacity:.91071427"/><stop style="stop-color:#f0bf7a;stop-opacity:.45490196" offset=".642" id="stop4300-1"/><stop id="stop4302-4" offset="1" style="stop-color:#f0bf7a;stop-opacity:0"/></linearGradient><linearGradient xlink:href="#linearGradient3418" id="linearGradient3416" x1="297.676" y1="553.482" x2="359.147" y2="570.189" gradientUnits="userSpaceOnUse"/><linearGradient xlink:href="#linearGradient3432" id="linearGradient3438" x1="301.637" y1="603.815" x2="324.009" y2="564.278" gradientUnits="userSpaceOnUse"/><linearGradient xlink:href="#linearGradient3795" id="linearGradient3791" x1="328.675" y1="598.911" x2="335.134" y2="548.355" gradientUnits="userSpaceOnUse"/><radialGradient xlink:href="#linearGradient4230" id="radialGradient4236" cx="306.6" cy="555.367" fx="306.6" fy="555.367" r="6.005" gradientTransform="matrix(.60886 .50796 -.90996 1.09071 625.308 -205.988)" gradientUnits="userSpaceOnUse"/><radialGradient xlink:href="#linearGradient4306" id="radialGradient4304" cx="327.576" cy="574.454" fx="327.576" fy="574.454" r="39.672" gradientTransform="matrix(0 1.07706 -1.15514 0 991.285 221.581)" gradientUnits="userSpaceOnUse"/></defs><g id="layer1" transform="translate(-288.985 -535.526)"><g id="g4793" transform="matrix(.96767 0 0 .94944 10.182 28.771)"><text xml:space="preserve" style="font-size:15.04275513px;font-style:normal;font-weight:400;line-height:125%;letter-spacing:0;word-spacing:0;fill:url(#linearGradient7459);fill-opacity:1;stroke:none;font-family:StoneSerITCStd Medium;-inkscape-font-specification:StoneSerITCStd Medium" x="319.974" y="555.133" id="text5503" transform="scale(.99054 1.00955)"><tspan id="tspan5505" x="319.974" y="555.133" style="font-size:2.25641346px;fill:url(#linearGradient7459);fill-opacity:1">Created by Falzar FZ</tspan></text><g transform="translate(.005 .026)" id="g3021" style="display:inline"><path style="fill:url(#linearGradient3416);fill-opacity:1;stroke:none" d="M325.125 533.768c-12.046.128-23.831 6.478-30.107 16.838-9.984 15.476-9.221 37.58 3.108 51.559 7.91 8.942 20.14 13.526 31.995 12.685 12.969-.255 25.58-7.742 31.67-19.258 5.398-9.438 6.922-20.84 4.725-31.458-2.298-13.991-13.543-26.225-27.386-29.441-4.606-.848-9.333-.962-14.005-.925z" id="path3048"/><path style="fill:url(#linearGradient3791);fill-opacity:1;stroke:none" d="M313.774 554.36c-16.095 1.918-22.005 49.43 23.194 43.552 18.175-11.087 26.889-21.818 25.254-29.59-4.29-9.281-6.366-6.814-12.198-3.983-22.794 5.716-22.42-12.565-36.25-9.979z" id="path3048-3-1"/><path style="fill:url(#linearGradient3438);fill-opacity:1;stroke:none" d="M319.258 534.423c-17.172 2.744-27.472 16.644-30.523 32.753-2.266 13.245 2.116 28.849 11.028 36.738 7.147 6.327 11.971 10.978 31.226 11.137 12.892.107 25.587-8.765 32.115-20.29 6.644-11.727 4.063-28.096 3.096-32.222-2.7 4.71-7.445 9.415-18.395 9.378-7.716.748-9.213 3.733-.531 8.98-6.732 4.939-7.366 6.57-10.862 7.466-2.15-2.66-6.843-8.093-10.316-7.87-2.844 17.357-10.759 12.694-15.18 6.495-9.813-15.53-11.508-17.572-11.651-25.454 1.575-14.026 5.323-21.836 19.993-27.111z" id="path3048-3"/></g><g id="g3783" transform="translate(-92.916 -2.03)" style="fill:#fff9f9;fill-opacity:1"><path d="M413.018 587.49s-.552 1.947-.008 2.978l-.025 8.937c-.772 1.295-.008 2.927-.008 2.927l18.69-.006s.766-1.325.036-3.014l.106-8.937c.605-1.049.034-2.884.034-2.884zm15.358 2.972-.018 2.97-11.599-.012-.061-2.924zm.005 5.955-.048 2.94-11.579.009-.058-2.97zm-7.538-22.79c-.008 1.022.726 2.915.726 2.915s-8.814.012-11.02.076c-.84.87-.89 1.653.533 2.461 1.257-.423 3.633-.54 5.338-.195.26.606.364 3.636.364 3.636s-7.917.078-9.131.593c-2.17.523-4.446 3.533-.02 3.349 3.51-1.421 8.754-1.297 14.684-1.325 5.264-.025 11.494 1.102 15.686 1.888 2.272-.771 2.789-2.767 2.553-4.462-1.821.087-11.701-.218-11.701-.218s.201-2.274.634-3.718c1.994.09 4.809.11 5.692-.348.546-.974.531-1.759-.374-1.986-1.187-.358-10.57.179-10.57.179s-.394-1.386-.728-2.528c-.545-1.868-2.651-2.132-2.666-.317zm5.605 4.961-.472 3.967-6.95-.016-.395-3.92zm.843-21.705s-.82 1.344.026 2.82l.11 11.845s2.148 1.456 4.798.115c4.012.027 11.644.062 11.644.062s.022 20.8.104 28.886c-.013 2.487 3.8 2.513 3.755.242.1-8.818.054-43.934.054-43.934s-1.438-.954-3.133-.082c-2.853-.007-11.258.017-14.124.01-2.046-.749-3.234.037-3.234.037zm16.637 2.04-.023 3.833-13.544-.047-.05-3.889zm-.024 6.85-.092 3.91-13.401-.043-.09-3.906zm-46.716-9.01s.243 29.052-.204 33.214c-1.822 4.438-3.88 6.383-4.956 7.108-.763 1.129.792 2.495 2.81 3.788 9.734 3.217 6.794-28.194 6.794-28.194l16.983.01.06-13.315c.879-1.532.01-2.58.01-2.58s-1.257-1.117-2.824-.004l-15.072-.021c-2.29-1.308-3.601-.005-3.601-.005zm18.473 6.866-14.47-.013-.006-4.706 14.575.091zm.046 6.982-14.49.131.003-4.99 14.569.026z" style="fill:#fff9f9;stroke:none;fill-opacity:1" id="path3452"/><g id="g3777" style="fill:#fff9f9;fill-opacity:1"><path style="fill:#fff9f9;stroke:none;fill-opacity:1" d="M398.008 542.832c-.104.24.013.552.3.531.371.074.982.013 1.06.525.103 1.508.025 3.03.04 4.542-.01 1.523-.023 3.046-.034 4.569-.357.388-.99.126-1.364.45-.085.211-.019.525.272.418 2.16-.037 4.33.091 6.484-.117 1.678-.267 3.373-1.134 4.304-2.617.673-1.075 1.014-2.35.907-3.627-.054-1.752-1.164-3.406-2.76-4.065-1.674-.803-3.568-.592-5.362-.644-1.274.014-2.562-.037-3.826.025l-.021.01zm4.71.653c1.148.017 1.861.003 2.838.707 1.286.819 1.82 2.43 1.823 3.915.033 1.677-.507 3.561-2.006 4.453-1.158.66-2.05.721-3.345.56-.495-.052-.792-.544-.74-1.024-.07-2.88-.041-5.762-.067-8.642l1.497.03z" id="path3713"/><path style="fill:#fff9f9;stroke:none;fill-opacity:1" d="M415.67 542.606c-.44-.007-.391.567-.581.828-1.27 2.937-2.47 5.904-3.8 8.815-.218.583-.766.992-1.369 1.12-.218.149-.15.635.198.498 1.044-.025 2.11.049 3.14-.037.145-.3-.107-.562-.411-.572-.46-.1-.617-.639-.407-1.014.226-.669.512-1.333.768-1.998h4.355c.291.896.809 1.761.855 2.701-.075.374-.625.272-.887.436-.228.142-.148.622.193.484 1.31-.018 2.634.036 3.933-.027.19-.274-.089-.57-.39-.576-.811-.242-.904-1.184-1.224-1.819-1.166-2.904-2.274-5.83-3.41-8.746-.27-.142-.651-.068-.963-.093zm-.08 2.092c.587 1.597 1.134 3.21 1.706 4.812-1.253-.015-2.508.034-3.76-.035a624.306 624.306 0 0 1 2.045-4.8l.008.023z" id="path3715"/><path style="fill:#fff9f9;stroke:none;fill-opacity:1" d="M422.23 542.824c-.086.216-.033.598.298.533.376.084 1.046.019 1.145.475.089 2.98.081 5.966.006 8.947-.033.449-.652.464-1 .523-.314-.022-.628.232-.436.542 1.628.053 3.273.007 4.908.023.254-.133.092-.582-.218-.551-.39-.108-1.007-.02-1.183-.461-.133-1.257-.055-2.53-.078-3.794h1.593c1.001 1.446 1.895 2.963 2.974 4.355.352.412.92.495 1.449.45.454-.04.97.083 1.39-.1.181-.293-.343-.4-.496-.57-1.366-1.105-2.31-2.622-3.393-3.976-.044-.173-.541-.457-.22-.556 1.12-.452 2.135-1.348 2.308-2.544.255-1.208-.432-2.532-1.652-2.979-1.02-.435-2.187-.254-3.273-.321-1.365.005-2.746-.06-4.1-.005l-.022.009zm4.487.654c.747-.01 1.428.003 1.925.63.637.82.556 1.954.313 2.89-.209.844-1.082 1.393-1.978 1.372-.499.033-.805.016-1.305.02v-4.932l1.045.02z" id="path3717"/><path style="fill:#fff9f9;stroke:none;fill-opacity:1" d="M433.339 542.832c-.087.227-.034.591.286.562.38.057.82-.024.938.453.118 2.874.083 5.755.016 8.631.038.286.157.623-.164.698-.334.17-.796.022-1.072.288-.092.207-.013.508.28.403 1.513-.018 3.04.036 4.544-.027.17-.238-.035-.565-.335-.527-.35-.064-.889-.051-1.058-.425-.146-1.487-.064-2.991-.109-4.485.42-.035.617.461.903.676 1.383 1.462 2.664 3.034 4.107 4.436.535.494 1.343.302 2.007.352.248-.06.698.088.82-.196-.259-.431-.82-.623-1.182-.979-1.42-1.074-2.516-2.459-3.778-3.708-.385-.406-.784-.816-1.152-1.235 1.387-1.274 2.808-2.542 4.3-3.695.365-.315.923-.417 1.192-.827.114-.312-.081-.543-.424-.432-.984.025-1.99-.049-2.96.037-.116.272.015.62.35.597.23.004.64.175.448.455-.814.953-1.858 1.703-2.786 2.548-.584.484-1.123 1.03-1.803 1.379-.042-1.305-.067-2.63.063-3.925.125-.552.824-.431 1.244-.533.284-.085.297-.707-.1-.558-1.516.019-3.047-.036-4.553.027l-.022.01z" id="path3719"/></g></g></g></g></svg>