<svg xmlns="http://www.w3.org/2000/svg" xmlns:xlink="http://www.w3.org/1999/xlink" width="77.407" height="77.407" id="svg4571" version="1.1"><defs id="defs4573"><linearGradient xlink:href="#linearGradient3226" id="linearGradient3232" x1="9.634" y1="56.496" x2="57.681" y2="13.216" gradientUnits="userSpaceOnUse"/><linearGradient id="linearGradient3226"><stop style="stop-color:#33281f;stop-opacity:1" offset="0" id="stop3228"/><stop id="stop3242" offset=".143" style="stop-color:#1e150e;stop-opacity:1"/><stop id="stop3240" offset=".375" style="stop-color:#281a13;stop-opacity:1"/><stop id="stop3238" offset=".616" style="stop-color:#442d1d;stop-opacity:1"/><stop id="stop3236" offset=".758" style="stop-color:#493220;stop-opacity:1"/><stop id="stop3234" offset=".867" style="stop-color:#422c1f;stop-opacity:1"/><stop style="stop-color:#1f2123;stop-opacity:1" offset="1" id="stop3230"/></linearGradient><linearGradient y2="22.402" x2="106.25" y1="22.902" x1="143.5" gradientTransform="matrix(.4843 0 0 .4843 310.095 520.096)" gradientUnits="userSpaceOnUse" id="linearGradient3069" xlink:href="#linearGradient5507-3"/><linearGradient id="linearGradient5507-3"><stop style="stop-color:red;stop-opacity:1" offset="0" id="stop5509-1"/><stop style="stop-color:#f60;stop-opacity:1" offset="1" id="stop5511-9"/></linearGradient><linearGradient y2="22.402" x2="106.25" y1="22.902" x1="143.5" gradientTransform="matrix(.4843 0 0 .4843 310.095 520.096)" gradientUnits="userSpaceOnUse" id="linearGradient4528" xlink:href="#linearGradient5507-3"/><linearGradient id="linearGradient4530"><stop style="stop-color:red;stop-opacity:1" offset="0" id="stop4532"/><stop style="stop-color:#f60;stop-opacity:1" offset="1" id="stop4534"/></linearGradient><linearGradient xlink:href="#linearGradient3264" id="linearGradient3262" x1="62.842" y1="10.666" x2="12.979" y2="61.406" gradientUnits="userSpaceOnUse"/><linearGradient id="linearGradient3264"><stop id="stop3266" offset="0" style="stop-color:#eaeaeb;stop-opacity:1"/><stop style="stop-color:#a3a3a3;stop-opacity:1" offset=".169" id="stop3268"/><stop style="stop-color:#d4d4d4;stop-opacity:1" offset=".32" id="stop3270"/><stop style="stop-color:#a4a4a4;stop-opacity:1" offset=".497" id="stop3272"/><stop style="stop-color:#ababab;stop-opacity:1" offset=".613" id="stop3274"/><stop style="stop-color:#f0f3f5;stop-opacity:1" offset=".828" id="stop3276"/><stop id="stop3278" offset="1" style="stop-color:#a4a4a4;stop-opacity:1"/></linearGradient><linearGradient xlink:href="#linearGradient3226-7" id="linearGradient3232-1" x1="9.634" y1="56.496" x2="57.681" y2="13.216" gradientUnits="userSpaceOnUse"/><linearGradient id="linearGradient3226-7"><stop style="stop-color:#33281f;stop-opacity:1" offset="0" id="stop3228-4"/><stop id="stop3242-0" offset=".143" style="stop-color:#1e150e;stop-opacity:1"/><stop id="stop3240-9" offset=".375" style="stop-color:#281a13;stop-opacity:1"/><stop id="stop3238-4" offset=".616" style="stop-color:#442d1d;stop-opacity:1"/><stop id="stop3236-8" offset=".758" style="stop-color:#493220;stop-opacity:1"/><stop id="stop3234-8" offset=".867" style="stop-color:#422c1f;stop-opacity:1"/><stop style="stop-color:#1f2123;stop-opacity:1" offset="1" id="stop3230-2"/></linearGradient><filter id="filter4215" x="0" y="0" width="1" height="1" color-interpolation-filters="sRGB"><feTurbulence id="feTurbulence4217" numOctaves="3" baseFrequency=".037" result="result0"/><feSpecularLighting id="feSpecularLighting4219" specularExponent="24.3" surfaceScale="2" specularConstant="1" result="result1"><feDistantLight id="feDistantLight4221" elevation="45" azimuth="225"/></feSpecularLighting><feDiffuseLighting id="feDiffuseLighting4223" in="result0" surfaceScale="3" diffuseConstant="1.21" result="result2"><feDistantLight id="feDistantLight4225" azimuth="225" elevation="42"/></feDiffuseLighting><feBlend id="feBlend4227" in2="SourceGraphic" mode="multiply" result="result91"/><feComposite k4="0" k1="0" id="feComposite4229" in2="result91" operator="arithmetic" in="result1" k2="1" k3="1" result="result92"/><feComposite id="feComposite4231" in2="SourceAlpha" operator="in" result="result2"/></filter><filter id="filter4456" x="0" y="0" width="1" height="1" color-interpolation-filters="sRGB"><feTurbulence id="feTurbulence4458" numOctaves="3" baseFrequency=".037" result="result0"/><feSpecularLighting id="feSpecularLighting4460" specularExponent="24.3" surfaceScale="2" specularConstant="1" result="result1"><feDistantLight id="feDistantLight4462" elevation="45" azimuth="225"/></feSpecularLighting><feDiffuseLighting id="feDiffuseLighting4464" in="result0" surfaceScale="3" diffuseConstant="1.21" result="result2"><feDistantLight id="feDistantLight4466" azimuth="225" elevation="42"/></feDiffuseLighting><feBlend in2="SourceGraphic" id="feBlend4468" mode="multiply" result="result91"/><feComposite k4="0" k1="0" in2="result91" id="feComposite4470" operator="arithmetic" in="result1" k2="1" k3="1" result="result92"/><feComposite in2="SourceAlpha" id="feComposite4472" operator="in" result="result2"/></filter><filter id="filter3097" x="0" y="0" width="1" height="1" color-interpolation-filters="sRGB"><feTurbulence id="feTurbulence3099" numOctaves="3" baseFrequency=".037" result="result0"/><feSpecularLighting id="feSpecularLighting3101" specularExponent="24.3" surfaceScale="2" specularConstant="1" result="result1"><feDistantLight id="feDistantLight3103" elevation="45" azimuth="225"/></feSpecularLighting><feDiffuseLighting id="feDiffuseLighting3105" in="result0" surfaceScale="3" diffuseConstant="1.21" result="result2"><feDistantLight id="feDistantLight3107" azimuth="225" elevation="42"/></feDiffuseLighting><feBlend id="feBlend3109" in2="SourceGraphic" mode="multiply" result="result91"/><feComposite id="feComposite3111" in2="result91" operator="arithmetic" in="result1" k2="1" k3="1" result="result92"/><feComposite id="feComposite3113" in2="SourceAlpha" operator="in" result="result2"/></filter></defs><g id="layer1" transform="translate(-336.294 -493.656)"><g transform="translate(1.164 1.27)" style="display:inline" id="g4496"><g id="g3034"><g id="g3123"><text xml:space="preserve" style="font-size:19.37196732px;font-style:normal;font-weight:400;line-height:125%;letter-spacing:0;word-spacing:0;fill:url(#linearGradient3069);fill-opacity:1;stroke:none;font-family:StoneSerITCStd Medium;-inkscape-font-specification:StoneSerITCStd Medium" x="355.983" y="531.793" id="text5503"><tspan id="tspan5505" x="355.983" y="531.793" style="font-size:2.90579534px;fill:url(#linearGradient3069);fill-opacity:1">Created by Falzar FZ</tspan></text><path style="fill:url(#linearGradient3232);fill-opacity:1;stroke:#131b40;stroke-width:0;stroke-miterlimit:4.0999999;stroke-opacity:1;stroke-dasharray:none" id="path3293" d="M72.952 36.456c0 20.103-16.365 36.4-36.552 36.4S-.152 56.558-.152 36.455c0-20.104 16.365-36.4 36.552-36.4s36.552 16.296 36.552 36.4z" transform="matrix(1.05182 0 0 1.05625 335.55 492.586)"/><path style="fill:#666;fill-opacity:1;stroke:#131b40;stroke-width:0;stroke-miterlimit:4.0999999;stroke-opacity:1;stroke-dasharray:none;display:inline;opacity:.12;filter:url(#filter3097)" id="path3293-4" d="M72.952 36.456a36.552 36.4 0 1 1-73.104 0 36.552 36.4 0 1 1 73.104 0z" transform="matrix(1.05182 0 0 1.05625 335.55 492.586)"/><path id="path4388-1-3" d="M374.642 497.117c-12.13.067-23.862 7.061-29.781 17.625-6.351 10.94-5.949 25.397.937 36 4.092 6.355 10.272 11.383 17.406 13.938 7.182 2.753 15.255 2.845 22.563.5 9.587-2.968 17.592-10.46 21.531-19.656 3.664-8.755 3.626-19.019-.281-27.688-4.92-11.446-16.47-19.621-28.875-20.594a34.219 34.219 0 0 0-3.5-.125zm-5.688 4.782v24.031c-7.453.29-14.918.157-22.375.156-.501-.051-1.065.018-1.593-.031 1.826-9.636 8.579-18.184 17.593-22.125a30.725 30.725 0 0 1 6.375-2.031zm12.657 0c7.795 1.682 14.906 6.472 19.25 13.187 2.18 3.234 3.64 6.883 4.406 10.688-7.965.12-15.91.174-23.875.25.076-8.04.096-16.087.219-24.125zm16.937 36.25c2.242.01 4.485-.002 6.719.062-.689 3.417-1.934 6.711-3.781 9.688-4.35 7.182-11.705 12.47-19.97 14.156-.199-3.188-.045-6.429-.093-9.625.016-4.754.048-9.496.063-14.25 5.688-.014 11.374-.032 17.062-.031zm-41.812.093c4.073 0 8.146.012 12.218 0v23.875c-8.414-1.74-15.967-7.164-20.312-14.562a29.72 29.72 0 0 1-3.563-9.219c3.885-.07 7.77-.092 11.657-.094z" style="fill:#070506;fill-opacity:1;stroke:none;display:inline"/><path transform="translate(335.153 492.386)" id="path4388-1" d="M38.156 3.844c-12.129.067-23.862 7.06-29.781 17.625-6.35 10.939-5.949 25.396.938 36 4.091 6.354 10.271 11.382 17.406 13.937 7.182 2.753 15.254 2.845 22.562.5 9.588-2.967 17.592-10.46 21.532-19.656 3.663-8.754 3.625-19.018-.282-27.688-4.92-11.446-16.47-19.62-28.875-20.593a34.219 34.219 0 0 0-3.5-.125zM32.47 8.625v24.031c-7.453.29-14.918.157-22.375.157-.502-.052-1.066.018-1.594-.032 1.826-9.636 8.579-18.184 17.594-22.125a30.725 30.725 0 0 1 6.375-2.031zm12.656 0c7.796 1.682 14.906 6.472 19.25 13.188 2.18 3.233 3.64 6.882 4.406 10.687-7.964.12-15.91.174-23.875.25.077-8.04.096-16.086.219-24.125zm16.938 36.25c2.241.01 4.484-.002 6.718.063-.688 3.416-1.933 6.71-3.781 9.687-4.35 7.182-11.705 12.47-19.969 14.156-.2-3.188-.045-6.429-.093-9.625.016-4.754.047-9.496.062-14.25 5.688-.013 11.374-.032 17.063-.031zm-41.813.094c4.073-.001 8.146.011 12.219 0v23.875C24.055 67.103 16.5 61.679 12.156 54.28a29.721 29.721 0 0 1-3.562-9.218c3.885-.07 7.77-.093 11.656-.094z" style="fill:url(#linearGradient3262);fill-opacity:1;stroke:none;display:inline"/><path id="path4388-1-4" d="M373.31 496.23c-12.13.067-23.862 7.061-29.782 17.625-6.35 10.94-5.948 25.396.938 36 4.091 6.355 10.271 11.383 17.406 13.938 7.182 2.752 15.255 2.844 22.562.5 9.588-2.968 17.593-10.46 21.532-19.657 3.663-8.754 3.625-19.018-.282-27.687-4.92-11.446-16.47-19.621-28.875-20.594a34.219 34.219 0 0 0-3.5-.125zm-5.688 4.781v24.032c-7.453.29-14.918.156-22.375.156-.502-.052-1.065.018-1.594-.031 1.826-9.636 8.58-18.185 17.594-22.125a30.725 30.725 0 0 1 6.375-2.032zm12.656 0c7.796 1.683 14.906 6.473 19.25 13.188 2.18 3.233 3.64 6.883 4.406 10.687-7.964.12-15.91.174-23.875.25.077-8.039.096-16.086.22-24.125zm16.938 36.25c2.241.01 4.485-.002 6.718.063-.688 3.416-1.933 6.711-3.78 9.687-4.35 7.183-11.706 12.471-19.97 14.157-.199-3.189-.045-6.43-.093-9.625.016-4.754.048-9.496.062-14.25 5.689-.014 11.374-.033 17.063-.032zm-41.813.094c4.073 0 8.146.012 12.219 0v23.875c-8.414-1.74-15.968-7.165-20.313-14.562a29.72 29.72 0 0 1-3.562-9.22c3.885-.07 7.77-.092 11.656-.093z" style="opacity:.07999998;fill:#666;fill-opacity:1;stroke:none;display:inline;filter:url(#filter4456)"/></g></g></g></g></svg>