<svg xmlns="http://www.w3.org/2000/svg" xmlns:xlink="http://www.w3.org/1999/xlink" width="76.852" height="77.152" id="svg3760" version="1.1"><defs id="defs3762"><linearGradient id="linearGradient4306"><stop id="stop4308" offset="0" style="stop-color:#9f863f;stop-opacity:1"/><stop style="stop-color:#332815;stop-opacity:1" offset="1" id="stop4310"/><stop id="stop4312" offset="1" style="stop-color:#e9e560;stop-opacity:1"/></linearGradient><linearGradient id="linearGradient4296"><stop id="stop4298" offset="0" style="stop-color:#f0bf7a;stop-opacity:.91071427"/><stop style="stop-color:#f0bf7a;stop-opacity:.45490196" offset=".642" id="stop4300"/><stop id="stop4302" offset="1" style="stop-color:#f0bf7a;stop-opacity:0"/></linearGradient><linearGradient id="linearGradient4230"><stop style="stop-color:#f0bf7a;stop-opacity:.91071427" offset="0" id="stop4232"/><stop id="stop4292" offset=".5" style="stop-color:#f0bf7a;stop-opacity:.45490196"/><stop style="stop-color:#f0bf7a;stop-opacity:0" offset="1" id="stop4234"/></linearGradient><linearGradient id="linearGradient3111"><stop style="stop-color:#f3c87d;stop-opacity:.7589286" offset="0" id="stop3113"/><stop id="stop3119" offset=".914" style="stop-color:#d69c45;stop-opacity:1"/><stop style="stop-color:#e5ff6a;stop-opacity:1" offset="1" id="stop3115"/></linearGradient><linearGradient id="linearGradient3101"><stop style="stop-color:#a5864d;stop-opacity:1" offset="0" id="stop3103"/><stop id="stop4238" offset=".786" style="stop-color:#332815;stop-opacity:1"/><stop style="stop-color:#1a1911;stop-opacity:1" offset="1" id="stop3105"/></linearGradient><linearGradient y2="22.402" x2="106.25" y1="22.902" x1="143.5" gradientTransform="translate(182.536 525.197) scale(1.21134)" gradientUnits="userSpaceOnUse" id="linearGradient6058" xlink:href="#linearGradient5507-3"/><linearGradient id="linearGradient5507-3"><stop style="stop-color:red;stop-opacity:1" offset="0" id="stop5509-1"/><stop style="stop-color:#f60;stop-opacity:1" offset="1" id="stop5511-9"/></linearGradient><linearGradient y2="22.402" x2="106.25" y1="22.902" x1="143.5" gradientTransform="translate(182.536 525.197) scale(1.21134)" gradientUnits="userSpaceOnUse" id="linearGradient7449" xlink:href="#linearGradient5507-3"/><linearGradient id="linearGradient7451"><stop style="stop-color:red;stop-opacity:1" offset="0" id="stop7453"/><stop style="stop-color:#f60;stop-opacity:1" offset="1" id="stop7455"/></linearGradient><linearGradient y2="22.402" x2="106.25" y1="22.902" x1="143.5" gradientTransform="matrix(.71709 0 0 .71709 242.577 538.31)" gradientUnits="userSpaceOnUse" id="linearGradient7459" xlink:href="#linearGradient5507-3"/><linearGradient id="linearGradient3111-5"><stop style="stop-color:#f3c87d;stop-opacity:.7589286" offset="0" id="stop3113-4"/><stop id="stop3119-9" offset=".914" style="stop-color:#d69c45;stop-opacity:1"/><stop style="stop-color:#e5ff6a;stop-opacity:1" offset="1" id="stop3115-5"/></linearGradient><linearGradient id="linearGradient3101-4"><stop style="stop-color:#a5864d;stop-opacity:1" offset="0" id="stop3103-8"/><stop id="stop4238-2" offset=".786" style="stop-color:#332815;stop-opacity:1"/><stop style="stop-color:#1a1911;stop-opacity:1" offset="1" id="stop3105-1"/></linearGradient><linearGradient id="linearGradient4296-8"><stop id="stop4298-3" offset="0" style="stop-color:#f0bf7a;stop-opacity:.91071427"/><stop style="stop-color:#f0bf7a;stop-opacity:.45490196" offset=".642" id="stop4300-1"/><stop id="stop4302-4" offset="1" style="stop-color:#f0bf7a;stop-opacity:0"/></linearGradient><radialGradient xlink:href="#linearGradient4230" id="radialGradient4236" cx="306.6" cy="555.367" fx="306.6" fy="555.367" r="6.005" gradientTransform="matrix(.60886 .50796 -.90996 1.09071 625.308 -205.988)" gradientUnits="userSpaceOnUse"/><radialGradient xlink:href="#linearGradient4306" id="radialGradient4304" cx="327.576" cy="574.454" fx="327.576" fy="574.454" r="39.672" gradientTransform="matrix(0 1.07706 -1.15514 0 991.285 221.581)" gradientUnits="userSpaceOnUse"/><radialGradient xlink:href="#linearGradient3111-5" id="radialGradient4358-4" cx="327.813" cy="574.355" fx="327.813" fy="574.355" r="39.672" gradientTransform="matrix(1 0 0 1.02323 0 -13.341)" gradientUnits="userSpaceOnUse"/><radialGradient xlink:href="#linearGradient3101-4" id="radialGradient3107-6" cx="316.585" cy="568.734" fx="316.585" fy="568.734" r="35.221" gradientTransform="matrix(.7474 .82267 -.75831 .68893 512.8 -84.985)" gradientUnits="userSpaceOnUse"/><radialGradient xlink:href="#linearGradient4296-8" id="radialGradient4294-6" gradientUnits="userSpaceOnUse" gradientTransform="matrix(.60886 .50796 -.90996 1.09071 625.308 -205.988)" cx="306.6" cy="555.367" fx="306.6" fy="555.367" r="6.005"/></defs><g id="layer1" transform="translate(-288.985 -535.526)"><g id="g4793" transform="matrix(.96767 0 0 .94944 10.182 28.771)"><text xml:space="preserve" style="font-size:28.68341637px;font-style:normal;font-weight:400;line-height:125%;letter-spacing:0;word-spacing:0;fill:url(#linearGradient7459);fill-opacity:1;stroke:none;font-family:StoneSerITCStd Medium;-inkscape-font-specification:StoneSerITCStd Medium" x="310.521" y="555.63" id="text5503" transform="scale(.99054 1.00955)"><tspan id="tspan5505" x="310.521" y="555.63" style="font-size:4.30251265px;fill:url(#linearGradient7459);fill-opacity:1">Created by Falzar FZ</tspan></text><g transform="translate(.005 .026)" id="g3021"><path style="fill:url(#radialGradient4358-4);fill-opacity:1;stroke:none" d="M325.125 533.768c-12.046.128-23.831 6.478-30.107 16.838-9.984 15.476-9.221 37.58 3.108 51.559 7.91 8.942 20.14 13.526 31.995 12.685 12.969-.255 25.58-7.742 31.67-19.258 5.398-9.438 6.922-20.84 4.725-31.458-2.298-13.991-13.543-26.225-27.386-29.441-4.606-.848-9.333-.962-14.005-.925z" id="path3048"/><path style="fill:url(#radialGradient3107-6);fill-opacity:1;stroke:none" d="M325.427 538.322c-10.695.113-21.158 5.751-26.73 14.949-8.863 13.74-8.186 33.363 2.76 45.774 7.023 7.938 17.881 12.009 28.405 11.262 11.514-.226 22.71-6.874 28.117-17.097 4.793-8.38 6.145-18.502 4.195-27.929-2.04-12.422-12.024-23.283-24.313-26.139-4.09-.752-8.286-.854-12.434-.82z" id="path3048-4"/><path style="fill:url(#radialGradient4294-6);fill-opacity:1;stroke:none" d="M311.715 548.433c-6.298-1.468-14.764 7.173-10.63 13.64 6.56 3.43 14.322-7.353 10.63-13.64z" id="path3109"/><g id="g4771" transform="translate(-85.682 .423)" style="fill:#fff;fill-opacity:1"><g style="fill:#fff;fill-opacity:1" transform="translate(-84.568)" id="g4661"><path style="fill:#fff;fill-opacity:1;stroke:none" d="M495.417 555.457c-.113 2.836 0 12.462.006 15.759-4.044-.152-19.228.217-20.13.547-1.914.703-1.787 3.192-.26 3.855 2.087.906 11.923.296 14.526.293-.004 4.024-2.122 7.061-4.377 10.44-2.272 3.187-6.065 6.174-8.795 7.81-2.21 1.326-4.032 2.31-6.473 2.181-1.95-.102-1.261 1.928-1.107 3.013.294 2.074 4.655 2.29 5.83 1.796 3.88-2.429 6.538-3.816 9.382-6.734 2.152-2.209 4.593-6.606 5.506-7.582 1.287-1.376 3.894-8.557 4.34-10.022.495-1.626.98-1.483 2.269-1.351h3.84c.625 5.857-.668 23.483.917 23.989 6.186 1.074 19.209 3.29 25.148 1.964 1.53-1.422 2.676-4.668 1.826-7.39-7.906 2.065-8.944 1.17-23.66 1.42-.6-5.12-.015-13.828 0-19.983 5.35 0 10.176-.136 15.653-.079 1.557.016 2.752-3.87.488-3.892-8.399-.166-13.277.11-20.177-.261-.095-5.287.109-10.514-.089-15.792-.025-2.271-4.442-1.955-4.663.019z" id="path4466"/><path style="fill:#fff;fill-opacity:1;stroke:none" d="M507.275 559.676c2.332 1.772 3.292 5.74 5.39 5.878 2.81.185 5.037-1.488 5.847-3.187.446-.936-8.096-3.425-10.059-4.096-1.047-.357-1.74.977-1.178 1.405z" id="path4468"/><path style="fill:#fff;fill-opacity:1;stroke:none" d="M486.81 558.618c-3.062 1.591-5.651 1.516-9.208 1.28-1.662 3.46 1.843 5.906 2.086 6.44.421.926 2.266.87 2.992.287 2.684-2.157 5.974-4.213 5.892-7.648-.02-.873-.864-.825-1.761-.36z" id="path4470"/></g><path id="path4692" d="M388.324 541.477c-.1.223-.008.694.294.661.344.07.88-.11 1.05.256.11 1.443.04 2.903.07 4.353-.023 1.479.06 2.966-.056 4.437-.22.454-.673.346-1.09.405-.185.127-.178.707.181.586 2.74-.009 5.265.02 7.999-.023.211-.445.207-1.104.334-1.59.038-.417.231-.984.176-1.399-.202-.257-.59.069-.608.36-.3.728-.764 1.64-1.61 1.826-.896.21-1.094.19-2.001.046-.467-.049-.75-.492-.696-.925-.034-2.622-.03-5.259.028-7.88-.046-.442.499-.382.834-.423.209-.02.603-.151.561-.458.076-.455-.535-.207-.802-.269-1.293.016-3.352-.032-4.636.024l-.028.013z" style="fill:#fff;fill-opacity:1;stroke:none"/><path id="path4694" d="M397.873 541.477c-.074.193.001.658.308.594.345.076 1.125.024 1.392.276.183.335.015.678.068 1.043.025 2.605.061 5.222-.047 7.82-.225.407-1.175.32-1.572.39-.246.046-.284.71.098.575h5.11c.193-.116.189-.693-.166-.597-.36-.048-.737.045-.932-.32-.116-1.621-.052-3.255-.08-4.882.019-1.304-.007-2.542.097-3.838.137-.368.493-.34.808-.432a.37.37 0 0 0 .379-.452c.002-.406-.438-.137-.703-.214-1.274.016-3.468-.032-4.732.024l-.028.013z" style="fill:#fff;fill-opacity:1;stroke:none"/><path id="path4696" d="M410.404 541.286c-1.89.062-4.19 1-5.28 2.842-.918 1.56-.855 3.794-.135 5.472.761 1.694 2.57 2.374 4.158 2.639 1.6.242 3.23-.05 4.763-.584.151-.272.03-.678.076-1.001.042-.92-.048-1.718.103-2.615.157-.3.529-.24.79-.328.168.01.38-.201.349-.45.067-.46-.457-.211-.687-.273-1.19.016-2.393-.033-3.574.024-.161.28.006.798.332.694.35.083.599-.006.858.324.025.18.044.354.057.524.049.61.032 1.174-.02 1.824-.037.503-.084 1.024-.549 1.135-1.009.3-2.11.123-3.054-.35-1.388-.785-1.357-2.576-1.404-4.288-.036-1.372.23-2.872 1.167-3.821.829-.87 1.314-.972 2.405-.93.96.065 1.041.033 1.563 1.034.172.341.243.737.375 1.087.294.099 1.22.21 1.154-.211-.091-.589-.13-1.18-.34-1.734-.202-.525-.948-.643-1.391-.81-.74-.202-.956-.226-1.716-.204z" style="fill:#fff;fill-opacity:1;stroke:none"/><path id="path4698" d="M416.375 541.477c-.07.193-.036.663.255.598.326.077.73.025.982.276.174.336.051.674.102 1.039.024 2.605.057 5.144-.045 7.74-.213.409-.777.32-1.153.39-.233.047-.269.79.093.655 1.412-.016 3.339.06 4.742.003.123-.247.018-.763-.35-.65-.322-.055-.86 0-.96-.418-.111-1.37-.042-2.682-.08-4.063-.125-.483.491-.208.768-.28 1.605 0 1.707-.027 3.312-.027-.035 1.473.029 2.878-.08 4.34-.102.428-.646.362-.975.414-.376-.101-.38.409-.289.656 1.424.058 3.868.008 5.298.025.248.003.247-.735-.047-.67-.354-.053-.696.024-.928-.318-.173-.89-.068-1.744-.104-2.651.019-1.98-.048-3.883.05-5.858-.017-.238.115-.468.358-.477.297-.105.475-.07.76-.183.123-.182.113-.683-.199-.578-1.389.016-3.794-.033-5.174.024-.141.192-.038.66.253.618.31.07.725.027.946.296.201.765.083 1.493.112 2.278l-.012 1.284c-1.84 0-2.179.028-4.02.028.023-1.165-.1-2.257.05-3.412.104-.426.65-.367.978-.437.239.028.45-.238.376-.498-.097-.324-.605-.076-.869-.154-1.206.017-2.927-.06-4.124-.003l-.026.013z" style="fill:#fff;fill-opacity:1;stroke:none"/><path id="path4700" d="M429.312 541.51c-.182.781-.38 1.58-.499 2.366.242.186.65.025.747-.254.359-.634.828-1.362 1.67-1.463.727-.126.992-.071 1.727-.085-.03 2.978.02 5.963-.074 8.936.024.451-.102.538-.468.57-.217.015-.621.005-.58.306-.075.451.566.203.845.265 1.362-.016 2.74.033 4.091-.024.143-.172.06-.54-.242-.52-.348-.081-.929-.033-1.192-.282-.201-.805-.087-1.654-.134-2.478-.011-2.26-.017-4.521-.027-6.782.816.061 1.425-.063 2.218.15.789.248 1.152 1.007 1.57 1.614.166.219.72.123.534-.204-.145-.692-.058-1.399-.233-2.081-.595-.104-1.077-.027-1.687-.06-2.727-.02-5.455-.008-8.182-.011l-.055.024-.03.013z" style="fill:#fff;fill-opacity:1;stroke:none"/></g></g></g></g></svg>