<svg xmlns="http://www.w3.org/2000/svg" xmlns:xlink="http://www.w3.org/1999/xlink" width="77.38" height="77.407" id="svg3933" version="1.1"><defs id="defs3935"><linearGradient y2="22.402" x2="106.25" y1="22.902" x1="143.5" gradientTransform="matrix(.4843 0 0 .4843 310.095 520.096)" gradientUnits="userSpaceOnUse" id="linearGradient3069" xlink:href="#linearGradient5507-3"/><linearGradient id="linearGradient5507-3"><stop style="stop-color:red;stop-opacity:1" offset="0" id="stop5509-1"/><stop style="stop-color:#f60;stop-opacity:1" offset="1" id="stop5511-9"/></linearGradient><linearGradient y2="22.402" x2="106.25" y1="22.902" x1="143.5" gradientTransform="matrix(.4843 0 0 .4843 310.095 520.096)" gradientUnits="userSpaceOnUse" id="linearGradient3868" xlink:href="#linearGradient5507-3"/><linearGradient id="linearGradient3870"><stop style="stop-color:red;stop-opacity:1" offset="0" id="stop3872"/><stop style="stop-color:#f60;stop-opacity:1" offset="1" id="stop3874"/></linearGradient><linearGradient xlink:href="#linearGradient3226" id="linearGradient3232" x1="48.233" y1="68.415" x2="12.199" y2="12.322" gradientUnits="userSpaceOnUse"/><linearGradient id="linearGradient3226"><stop style="stop-color:#1e1712;stop-opacity:1" offset="0" id="stop3228"/><stop id="stop3406" offset=".116" style="stop-color:#503625;stop-opacity:1"/><stop id="stop3242" offset=".232" style="stop-color:#312316;stop-opacity:1"/><stop id="stop3240" offset=".334" style="stop-color:#0c0806;stop-opacity:1"/><stop id="stop3238" offset=".498" style="stop-color:#50351c;stop-opacity:1"/><stop id="stop3236" offset=".599" style="stop-color:#503723;stop-opacity:1"/><stop id="stop3234" offset=".765" style="stop-color:#462f21;stop-opacity:1"/><stop style="stop-color:#17100a;stop-opacity:1" offset="1" id="stop3230"/></linearGradient><linearGradient y2="2.906" x2="54.07" y1="76.136" x1="23.633" gradientTransform="matrix(.92709 0 0 .91802 339.374 496.889)" gradientUnits="userSpaceOnUse" id="linearGradient3464" xlink:href="#linearGradient3545"/><linearGradient id="linearGradient3545"><stop style="stop-color:#eaeaeb;stop-opacity:1" offset="0" id="stop3547"/><stop id="stop3549" offset=".151" style="stop-color:#a3a3a3;stop-opacity:1"/><stop id="stop3551" offset=".319" style="stop-color:#dad9d9;stop-opacity:1"/><stop id="stop3553" offset=".51" style="stop-color:#979797;stop-opacity:1"/><stop id="stop3555" offset=".666" style="stop-color:#858585;stop-opacity:1"/><stop id="stop3557" offset=".891" style="stop-color:#f0f3f5;stop-opacity:1"/><stop style="stop-color:#a4a4a4;stop-opacity:1" offset="1" id="stop3559"/></linearGradient><linearGradient y2="2.906" x2="54.07" y1="76.136" x1="23.633" gradientTransform="matrix(.92709 0 0 .91802 339.374 496.889)" gradientUnits="userSpaceOnUse" id="linearGradient3786" xlink:href="#linearGradient3545-6"/><linearGradient id="linearGradient3545-6"><stop style="stop-color:#eaeaeb;stop-opacity:1" offset="0" id="stop3547-6"/><stop id="stop3549-6" offset=".151" style="stop-color:#a3a3a3;stop-opacity:1"/><stop id="stop3551-2" offset=".319" style="stop-color:#dad9d9;stop-opacity:1"/><stop id="stop3553-5" offset=".51" style="stop-color:#979797;stop-opacity:1"/><stop id="stop3555-5" offset=".666" style="stop-color:#858585;stop-opacity:1"/><stop id="stop3557-0" offset=".891" style="stop-color:#f0f3f5;stop-opacity:1"/><stop style="stop-color:#a4a4a4;stop-opacity:1" offset="1" id="stop3559-3"/></linearGradient><linearGradient y2="2.906" x2="54.07" y1="76.136" x1="23.633" gradientTransform="matrix(.92709 0 0 .91802 339.374 496.889)" gradientUnits="userSpaceOnUse" id="linearGradient3931" xlink:href="#linearGradient3545-6"/><linearGradient xlink:href="#linearGradient5507-3" id="linearGradient4348" gradientUnits="userSpaceOnUse" gradientTransform="matrix(.4843 0 0 .4843 310.095 520.096)" x1="143.5" y1="22.902" x2="106.25" y2="22.402"/><linearGradient xlink:href="#linearGradient3226" id="linearGradient4350" gradientUnits="userSpaceOnUse" x1="48.233" y1="68.415" x2="12.199" y2="12.322"/><linearGradient xlink:href="#linearGradient3545" id="linearGradient4352" gradientUnits="userSpaceOnUse" gradientTransform="matrix(.92709 0 0 .91802 339.374 496.889)" x1="23.633" y1="76.136" x2="54.07" y2="2.906"/><linearGradient xlink:href="#linearGradient3545-6" id="linearGradient4354" gradientUnits="userSpaceOnUse" gradientTransform="matrix(.92709 0 0 .91802 339.374 496.889)" x1="23.633" y1="76.136" x2="54.07" y2="2.906"/><filter id="filter3636" x="0" y="0" width="1" height="1" color-interpolation-filters="sRGB"><feTurbulence id="feTurbulence3638" numOctaves="3" baseFrequency=".037" result="result0"/><feSpecularLighting id="feSpecularLighting3640" specularExponent="24.3" surfaceScale="2" specularConstant="1" result="result1"><feDistantLight id="feDistantLight3642" elevation="45" azimuth="225"/></feSpecularLighting><feDiffuseLighting id="feDiffuseLighting3644" in="result0" surfaceScale="3" diffuseConstant="1.21" result="result2"><feDistantLight id="feDistantLight3646" azimuth="225" elevation="42"/></feDiffuseLighting><feBlend in2="SourceGraphic" id="feBlend3648" mode="multiply" result="result91"/><feComposite k4="0" k1="0" in2="result91" id="feComposite3650" operator="arithmetic" in="result1" k2="1" k3="1" result="result92"/><feComposite in2="SourceAlpha" id="feComposite3652" operator="in" result="result2"/></filter><filter id="filter3815" x="0" y="0" width="1" height="1" color-interpolation-filters="sRGB"><feTurbulence id="feTurbulence3817" numOctaves="3" baseFrequency=".037" result="result0"/><feSpecularLighting id="feSpecularLighting3819" specularExponent="24.3" surfaceScale="2" specularConstant="1" result="result1"><feDistantLight id="feDistantLight3821" elevation="45" azimuth="225"/></feSpecularLighting><feDiffuseLighting id="feDiffuseLighting3823" in="result0" surfaceScale="3" diffuseConstant="1.21" result="result2"><feDistantLight id="feDistantLight3825" azimuth="225" elevation="42"/></feDiffuseLighting><feBlend id="feBlend3827" in2="SourceGraphic" mode="multiply" result="result91"/><feComposite k4="0" k1="0" id="feComposite3829" in2="result91" operator="arithmetic" in="result1" k2="1" k3="1" result="result92"/><feComposite id="feComposite3831" in2="SourceAlpha" operator="in" result="result2"/></filter></defs><g id="layer1" transform="translate(-267.031 -407.942)"><g transform="translate(-69.286 -85.714)" id="g3844"><g id="g3496" style="display:inline" transform="translate(1.164 1.27)"><text xml:space="preserve" style="font-size:19.37196732px;font-style:normal;font-weight:400;line-height:125%;letter-spacing:0;word-spacing:0;fill:url(#linearGradient4348);fill-opacity:1;stroke:none;font-family:StoneSerITCStd Medium;-inkscape-font-specification:StoneSerITCStd Medium" x="355.983" y="531.793" id="text5503"><tspan id="tspan5505" x="355.983" y="531.793" style="font-size:2.90579534px;fill:url(#linearGradient4348);fill-opacity:1">Created by Falzar FZ</tspan></text><path style="fill:url(#linearGradient4350);fill-opacity:1;stroke:#131b40;stroke-width:0;stroke-miterlimit:4.0999999;stroke-opacity:1;stroke-dasharray:none" id="path3293" d="M72.952 36.456c0 20.103-16.365 36.4-36.552 36.4S-.152 56.558-.152 36.455c0-20.104 16.365-36.4 36.552-36.4s36.552 16.296 36.552 36.4z" transform="matrix(1.05182 0 0 1.05625 335.55 492.586)"/><path style="opacity:.12000002;fill:#666;fill-opacity:1;stroke:#131b40;stroke-width:0;stroke-miterlimit:4.0999999;stroke-opacity:1;stroke-dasharray:none;display:inline;filter:url(#filter3636)" id="path3293-2" d="M72.952 36.456c0 20.103-16.365 36.4-36.552 36.4S-.152 56.558-.152 36.455c0-20.104 16.365-36.4 36.552-36.4s36.552 16.296 36.552 36.4z" transform="matrix(1.05182 0 0 1.05625 335.55 492.586)"/></g><path d="M377.137 499.563c-.5-.008-1.008.018-1.506.029-6.176.148-12.458 1.439-17.673 4.848-9.427 5.88-15.641 16.612-15.558 27.713-.094 4.533.41 9.096 2 13.368 3.101 8.898 10.651 15.881 19.44 19.221 4.207 1.627 8.755 2.321 13.268 2.066 3.868-.003 7.782-.466 11.386-1.922 7.443-3.009 13.98-8.461 17.817-15.492 4.143-7.948 4.948-17.523 2.492-26.106-1.878-6.36-5.975-11.863-10.864-16.295-5.62-5.083-13.288-7.32-20.802-7.43zm-.84 2.41c.764 0 1.51.005 2.26.057.337.024.266.032.6.067l-17.259 21.908 12.487 14.947-15.964 19.995c-8.259-5.634-13.674-15.05-13.674-25.733 0-17.254 14.125-31.241 31.55-31.241zm15.934 4.274c9.334 5.426 15.616 15.475 15.616 26.967 0 15.813-11.868 28.853-27.262 30.926l13.645-24.959-14.485-14.057zm-16.516-7.752c-12.13.067-23.861 7.06-29.78 17.625-6.351 10.939-5.959 25.394.927 35.998 4.092 6.354 10.271 11.377 17.406 13.932 7.182 2.753 15.265 2.825 22.573.48 9.588-2.968 17.594-10.432 21.533-19.628 3.664-8.755 3.621-19.034-.285-27.703-4.92-11.447-16.456-19.61-28.86-20.583a34.48 34.48 0 0 0-3.514-.12zm.555 4.106c10.183-.1 20.145 5.32 25.661 13.847 6.483 9.612 6.737 22.968.622 32.817-4.453 7.354-12.046 12.744-20.552 14.292-2.823.472-5.732.587-8.587.43-9.748-.821-18.778-6.695-23.7-15.077-3.092-5.175-4.515-11.26-4.134-17.278.404-11.3 7.749-21.835 18.062-26.343a30.958 30.958 0 0 1 12.628-2.688z" style="fill:#070506;fill-opacity:1;stroke:none;display:inline" id="path3316"/><path d="M375.894 498.58c-.501-.007-1.008.018-1.507.03-6.175.147-12.457 1.439-17.672 4.848-9.427 5.879-15.641 16.612-15.558 27.712-.094 4.534.41 9.097 2 13.369 3.1 8.898 10.651 15.88 19.439 19.22 4.208 1.627 8.756 2.322 13.269 2.066 3.867-.003 7.782-.466 11.386-1.922 7.442-3.008 13.98-8.46 17.817-15.491 4.142-7.949 4.947-17.523 2.492-26.106-1.879-6.361-5.975-11.863-10.864-16.295-5.62-5.084-13.288-7.32-20.802-7.43zm-.84 2.41c.764 0 1.509.005 2.26.058.337.024.266.032.6.066l-17.26 21.909 12.488 14.946-15.964 19.996c-8.259-5.634-13.674-15.051-13.674-25.733 0-17.254 14.125-31.242 31.55-31.242zm15.934 4.275c9.334 5.426 15.616 15.474 15.616 26.967 0 15.812-11.868 28.852-27.262 30.925l13.645-24.958-14.486-14.057zm-16.516-7.752c-12.13.067-23.861 7.06-29.78 17.624-6.352 10.94-5.959 25.394.927 35.998 4.092 6.355 10.271 11.378 17.406 13.933 7.182 2.752 15.265 2.824 22.573.48 9.588-2.968 17.594-10.432 21.533-19.629 3.664-8.754 3.621-19.033-.286-27.703-4.92-11.446-16.455-19.61-28.86-20.582a34.48 34.48 0 0 0-3.513-.121zm.554 4.106c10.184-.101 20.146 5.32 25.662 13.847 6.483 9.611 6.737 22.967.622 32.817-4.453 7.354-12.046 12.744-20.552 14.291-2.824.473-5.732.588-8.587.43-9.748-.82-18.778-6.695-23.7-15.076-3.092-5.176-4.515-11.26-4.134-17.279.404-11.3 7.749-21.834 18.062-26.343a30.958 30.958 0 0 1 12.627-2.687z" style="fill:url(#linearGradient4352);fill-opacity:1;stroke:none;display:inline" id="path3316-0"/><path d="M375.894 498.58c-.501-.007-1.008.018-1.507.03-6.175.147-12.457 1.439-17.672 4.848-9.427 5.879-15.641 16.612-15.558 27.712-.094 4.534.41 9.097 2 13.369 3.1 8.898 10.651 15.88 19.439 19.22 4.208 1.627 8.756 2.322 13.269 2.066 3.867-.003 7.782-.466 11.386-1.922 7.442-3.008 13.98-8.46 17.817-15.491 4.142-7.949 4.947-17.523 2.492-26.106-1.879-6.361-5.975-11.863-10.864-16.295-5.62-5.084-13.288-7.32-20.802-7.43zm-.84 2.41c.764 0 1.509.005 2.26.058.337.024.266.032.6.066l-17.26 21.909 12.488 14.946-15.964 19.996c-8.259-5.634-13.674-15.051-13.674-25.733 0-17.254 14.125-31.242 31.55-31.242zm15.934 4.275c9.334 5.426 15.616 15.474 15.616 26.967 0 15.812-11.868 28.852-27.262 30.925l13.645-24.958-14.486-14.057zm-16.516-7.752c-12.13.067-23.861 7.06-29.78 17.624-6.352 10.94-5.959 25.394.927 35.998 4.092 6.355 10.271 11.378 17.406 13.933 7.182 2.752 15.265 2.824 22.573.48 9.588-2.968 17.594-10.432 21.533-19.629 3.664-8.754 3.621-19.033-.286-27.703-4.92-11.446-16.455-19.61-28.86-20.582a34.48 34.48 0 0 0-3.513-.121zm.554 4.106c10.184-.101 20.146 5.32 25.662 13.847 6.483 9.611 6.737 22.967.622 32.817-4.453 7.354-12.046 12.744-20.552 14.291-2.824.473-5.732.588-8.587.43-9.748-.82-18.778-6.695-23.7-15.076-3.092-5.176-4.515-11.26-4.134-17.279.404-11.3 7.749-21.834 18.062-26.343a30.958 30.958 0 0 1 12.627-2.687z" style="opacity:.11000001;fill:url(#linearGradient4354);fill-opacity:1;stroke:none;display:inline;filter:url(#filter3815)" id="path3316-0-5"/></g></g></svg>